<svg xmlns="http://www.w3.org/2000/svg" width="161.322" height="35.779" viewBox="0 0 161.322 35.779"><defs><style>.a{fill:#707070;}</style></defs><g transform="translate(-299.324 -377.672)"><g transform="translate(299.324 377.672)"><path class="a" d="M307.5,387.359v.731h5.368a.934.934,0,0,1,1.038,1.037v2.025a.934.934,0,0,1-1.038,1.037H307.5v19.262a.934.934,0,0,1-1.034,1.038h-2.174a.933.933,0,0,1-1.035-1.038V392.189h-2.892a.934.934,0,0,1-1.037-1.037v-2.025a.934.934,0,0,1,1.037-1.037h2.892v-.731c0-6.162,3.329-9.759,9.611-9.686a.986.986,0,0,1,1.038,1.085v2.025c0,.672-.365.99-1.085.99C309.279,381.735,307.5,383.515,307.5,387.359Z" transform="translate(-299.324 -377.672)"/></g><g transform="translate(356.426 378.331)"><path class="a" d="M389.2,390.676a.934.934,0,0,1,1.038,1.037v22.324a.935.935,0,0,1-1.038,1.038h-2.17a.935.935,0,0,1-1.039-1.038v-1.968a8,8,0,0,1-7.22,3.614c-4.538,0-8.171-3.439-8.171-9.174v-14.8a.933.933,0,0,1,1.034-1.037H373.8a.933.933,0,0,1,1.036,1.037v14.639c0,3.5,2.147,5.307,5.061,5.307,3.039,0,6.091-1.841,6.091-7.1V391.713a.933.933,0,0,1,1.036-1.037Z" transform="translate(-370.595 -380.917)"/><path class="a" d="M422.657,399.09v14.8a.935.935,0,0,1-1.037,1.038h-2.173a.933.933,0,0,1-1.034-1.038V399.247c0-3.5-2.15-5.306-5.063-5.306-3.038,0-6.087,1.84-6.087,7.1v12.843a.935.935,0,0,1-1.039,1.038h-2.17a.934.934,0,0,1-1.038-1.038V391.562a.934.934,0,0,1,1.038-1.037h2.17a.935.935,0,0,1,1.039,1.037v1.968a8,8,0,0,1,7.221-3.613C419.021,389.916,422.657,393.355,422.657,399.09Z" transform="translate(-377.04 -380.766)"/><path class="a" d="M458.753,379.532v32.083a.934.934,0,0,1-1.037,1.038h-2.171a.935.935,0,0,1-1.038-1.038v-3.1a10.633,10.633,0,0,1-9.212,4.745,12.816,12.816,0,0,1,0-25.616,10.631,10.631,0,0,1,9.212,4.744V379.532a.934.934,0,0,1,1.038-1.037h2.171A.933.933,0,0,1,458.753,379.532Zm-4.245,20.921a8.662,8.662,0,1,0-8.662,8.736A8.53,8.53,0,0,0,454.508,400.453Z" transform="translate(-382.99 -378.495)"/><path class="a" d="M473.07,382.825v-3.293a.932.932,0,0,1,1.034-1.037h2.173a.935.935,0,0,1,1.038,1.037v3.293a.935.935,0,0,1-1.038,1.038H474.1A.932.932,0,0,1,473.07,382.825Zm0,28.79V389.291a.932.932,0,0,1,1.034-1.037h2.173a.935.935,0,0,1,1.038,1.037v22.324a.936.936,0,0,1-1.038,1.038H474.1A.933.933,0,0,1,473.07,411.615Z" transform="translate(-390.967 -378.495)"/><path class="a" d="M497.24,389.775V391.8a.934.934,0,0,1-1.037,1.037h-3.744V412.1a.936.936,0,0,1-1.037,1.038h-2.173a.935.935,0,0,1-1.038-1.038V392.837h-3.78a.935.935,0,0,1-1.038-1.037v-2.025a.935.935,0,0,1,1.038-1.037h3.78v-6.771a.934.934,0,0,1,1.038-1.037h2.173a.935.935,0,0,1,1.037,1.037v6.771H496.2A.934.934,0,0,1,497.24,389.775Z" transform="translate(-393.02 -378.979)"/></g><path class="a" d="M339.274,380.75a16.628,16.628,0,0,0-12.406,27.732l-2.29,2.342a1.745,1.745,0,0,0,2.5,2.438l2.377-2.433a16.646,16.646,0,1,0,9.821-30.078Zm0,29.828a13.086,13.086,0,0,1-7.369-2.262l3.1-3.166a8.907,8.907,0,0,0,4.272,1.106,8.869,8.869,0,1,0-6.954-3.351l-3.014,3.082a13.156,13.156,0,1,1,9.969,4.59Zm-5.463-13.172a5.462,5.462,0,1,1,5.461,5.513A5.366,5.366,0,0,1,333.811,397.406Z" transform="translate(-4.631 -0.612)"/></g></svg>