<svg xmlns="http://www.w3.org/2000/svg" width="1400" height="310.503" viewBox="0 0 1400 310.503"><defs><style>.a{opacity:0.29;}.b{fill:#d6d6d6;}</style></defs><g class="a" transform="translate(-299.324 -377.672)"><g transform="translate(299.324 377.672)"><path class="b" d="M370.244,461.743v6.348H416.83c5.833,0,9,3.192,9,9v17.571c0,5.8-3.171,9-9,9H370.244V670.82c0,5.813-3.177,9-8.976,9H342.4c-5.812,0-8.982-3.191-8.982-9V503.656H308.328c-5.833,0-9-3.192-9-9V477.088c0-5.806,3.17-9,9-9h25.094v-6.348c0-53.476,28.889-84.694,83.408-84.062,5.833,0,9,3.9,9,9.414v17.57c0,5.834-3.171,8.587-9.414,8.587C385.716,412.933,370.244,428.383,370.244,461.743Z" transform="translate(-299.324 -377.672)"/></g><g transform="translate(794.871 383.396)"><path class="b" d="M532.016,390.676c5.826,0,9,3.191,9,9V593.4c0,5.813-3.178,9-9,9H513.187c-5.833,0-9.018-3.191-9.018-9V576.328c-15.13,23.05-37.045,31.365-62.661,31.365-39.381,0-70.914-29.849-70.914-79.618v-128.4c0-5.805,3.17-9,8.976-9h18.857c5.826,0,8.99,3.191,8.99,9V526.711c0,30.4,18.635,46.057,43.923,46.057,26.373,0,52.856-15.978,52.856-61.631V399.672c0-5.805,3.157-9,8.99-9Z" transform="translate(-370.595 -305.982)"/><path class="b" d="M573.462,469.528v128.4c0,5.813-3.2,9-9,9H545.608c-5.813,0-8.976-3.191-8.976-9V470.891c0-30.384-18.654-46.05-43.936-46.05-26.366,0-52.829,15.972-52.829,61.632V597.929c0,5.813-3.184,9-9.018,9H412.021c-5.834,0-9-3.191-9-9V404.2c0-5.806,3.17-9,9-9h18.829c5.834,0,9.018,3.191,9.018,9v17.077c15.137-23.043,37.052-31.358,62.668-31.358C541.91,389.916,573.462,419.758,573.462,469.528Z" transform="translate(-177.593 -310.506)"/><path class="b" d="M656.946,387.493V665.918c0,5.813-3.171,9-9,9H629.112c-5.826,0-9-3.192-9-9V639.031c-16.874,25.33-44.256,41.176-79.945,41.176-58.628,0-107.222-48.379-107.222-111.158s48.594-111.144,107.222-111.144c35.689,0,63.071,15.832,79.945,41.168V387.493c0-5.813,3.178-9,9-9h18.836C653.775,378.495,656.946,381.68,656.946,387.493ZM620.108,569.049c0-43.185-32.6-75.808-75.175-75.808-42.532,0-75.163,32.623-75.163,75.808s32.63,75.815,75.163,75.815C587.506,644.865,620.108,612.242,620.108,569.049Z" transform="translate(0.551 -378.495)"/><path class="b" d="M473.07,416.069V387.493c0-5.813,3.157-9,8.977-9H500.9c5.805,0,9,3.185,9,9v28.577c0,5.833-3.2,9-9,9H482.047C476.227,425.073,473.07,421.9,473.07,416.069Zm0,249.849V472.187c0-5.806,3.157-9,8.977-9H500.9c5.805,0,9,3.192,9,9V665.918c0,5.813-3.2,9-9,9H482.047C476.227,674.923,473.07,671.731,473.07,665.918Z" transform="translate(239.439 -378.495)"/><path class="b" d="M603.562,457.685v17.57c0,5.806-3.17,9-9,9H562.066V651.416c0,5.812-3.2,9-9,9H534.206c-5.827,0-9-3.192-9-9V484.253H492.4c-5.806,0-9-3.192-9-9v-17.57c0-5.806,3.2-9,9-9h32.8v-58.76c0-5.813,3.178-9,9-9h18.856c5.805,0,9,3.184,9,9v58.76h32.492C600.391,448.688,603.562,451.879,603.562,457.685Z" transform="translate(300.891 -363.994)"/></g><path class="b" d="M467.164,380.75c-79.709,0-144.546,64.83-144.546,144.546A143.736,143.736,0,0,0,359.5,621.415l-19.871,20.323A15.144,15.144,0,0,0,361.3,662.9l20.629-21.118a143.517,143.517,0,0,0,85.23,28.07c79.723,0,144.559-64.837,144.559-144.553S546.887,380.75,467.164,380.75Zm0,258.853a113.562,113.562,0,0,1-63.953-19.628L430.077,592.5a77.3,77.3,0,0,0,37.073,9.6c43.233,0,77.088-33.75,77.088-76.8s-33.854-76.781-77.088-76.781c-43.213,0-77.06,33.729-77.06,76.781A76.315,76.315,0,0,0,406.8,573.021l-26.158,26.748A114.17,114.17,0,1,1,467.164,639.6ZM419.758,525.3c0-27.256,20.366-47.828,47.393-47.828s47.412,20.572,47.412,47.828c0,27.284-20.386,47.844-47.412,47.844S419.758,552.58,419.758,525.3Z" transform="translate(138.669 18.325)"/></g></svg>