<svg xmlns="http://www.w3.org/2000/svg" width="44.7" height="44.7" viewBox="0 0 44.7 44.7"><g transform="translate(-159.924 -461.043)"><circle cx="19.481" cy="19.481" r="19.481" transform="translate(159.924 499.502) rotate(-80.783)" fill="#fff"/><path d="M196.617,494.088V506.02a.311.311,0,0,0,.311.311h4.431a.311.311,0,0,0,.31-.311V493.894h3.213a.31.31,0,0,0,.309-.284l.309-3.654a.311.311,0,0,0-.31-.337H201.67v-2.592a1.1,1.1,0,0,1,1.1-1.1h2.476a.31.31,0,0,0,.31-.31v-3.654a.311.311,0,0,0-.31-.311h-4.184a4.446,4.446,0,0,0-4.445,4.445v3.522H194.4a.311.311,0,0,0-.311.31v3.654a.311.311,0,0,0,.311.31h2.215Z" transform="translate(-17.571 -10.598)" fill="#0d0d0d" fill-rule="evenodd"/></g></svg>