<svg xmlns="http://www.w3.org/2000/svg" width="44.7" height="44.7" viewBox="0 0 44.7 44.7"><g transform="translate(-159.924 -461.043)"><path d="M19.481,0A19.481,19.481,0,1,1,0,19.481,19.481,19.481,0,0,1,19.481,0Z" transform="translate(159.924 499.502) rotate(-80.783)" fill="#fff"/><path d="M345.84,490.758a1.513,1.513,0,1,0,1.514,1.513A1.513,1.513,0,0,0,345.84,490.758Z" transform="translate(-156.833 -15.282)" fill="#0d0d0d"/><path d="M326.859,494.753a6.358,6.358,0,1,0,6.358,6.358A6.365,6.365,0,0,0,326.859,494.753Zm0,10.43a4.073,4.073,0,1,1,4.072-4.073A4.077,4.077,0,0,1,326.859,505.183Z" transform="translate(-144.581 -17.336)" fill="#0d0d0d"/><g transform="translate(169.264 470.867)"><path d="M324.858,507.084H314.552a7.763,7.763,0,0,1-7.754-7.754V489.023a7.763,7.763,0,0,1,7.754-7.754h10.306a7.763,7.763,0,0,1,7.755,7.754V499.33A7.763,7.763,0,0,1,324.858,507.084ZM314.552,483.7a5.331,5.331,0,0,0-5.326,5.325V499.33a5.331,5.331,0,0,0,5.326,5.326h10.306a5.332,5.332,0,0,0,5.326-5.326V489.023a5.331,5.331,0,0,0-5.326-5.325Z" transform="translate(-306.798 -481.269)" fill="#0d0d0d"/></g></g></svg>